# xmcd
#
# Track frame offsets:
#	150
#	20027
#	34100
#	50407
#	65412
#	77197
#	92990
#	109677
#	130212
#	143912
#	158747
#	172205
#	195977
#	208080
#	228230
#	243135
#
# Disc length: 3447 seconds
#
# Revision: 0
# Processed by: cddbd v1.5.2PL0 Copyright (c) Steve Scherf et al.
# Submitted via: EasyCDDAExtractor 10.1.0.1
#
DISCID=db0d7510
DTITLE=Unknown - Country Pop Hits
DYEAR=1990
DGENRE=Country
TTITLE0=You win my love
TTITLE1=Daddy's money
TTITLE2=Like the rain 
TTITLE3=Check yes or no
TTITLE4=So much for pretending
TTITLE5=I like it, i love it
TTITLE6=My Maria
TTITLE7=Lonelu too long
TTITLE8=The fear of being alone
TTITLE9=Poor poor pitiful me
TTITLE10=Blue
TTITLE11=Go rest high on that mountain
TTITLE12=My baby loves me
TTITLE13=Which bridge to cross
TTITLE14=Third roch from the sun 
TTITLE15=Friends in low places
EXTD=
EXTT0=
EXTT1=
EXTT2=
EXTT3=
EXTT4=
EXTT5=
EXTT6=
EXTT7=
EXTT8=
EXTT9=
EXTT10=
EXTT11=
EXTT12=
EXTT13=
EXTT14=
EXTT15=
PLAYORDER=
